<?xml version="1.0" encoding="UTF-8" standalone="no"?>
<svg
   xmlns:dc="http://purl.org/dc/elements/1.1/"
   xmlns:cc="http://creativecommons.org/ns#"
   xmlns:rdf="http://www.w3.org/1999/02/22-rdf-syntax-ns#"
   xmlns:svg="http://www.w3.org/2000/svg"
   xmlns="http://www.w3.org/2000/svg"
   xmlns:xlink="http://www.w3.org/1999/xlink"
   xmlns:sodipodi="http://sodipodi.sourceforge.net/DTD/sodipodi-0.dtd"
   xmlns:inkscape="http://www.inkscape.org/namespaces/inkscape"
   sodipodi:docname="ddlx_obj.svg"
   inkscape:version="1.0rc1 (09960d6, 2020-04-09)"
   id="svg852"
   version="1.1"
   viewBox="0 0 4.2333332 4.2333335"
   height="16"
   width="16">
  <defs
     id="defs846">
    <filter
       style="color-interpolation-filters:sRGB"
       inkscape:label="Drop Shadow"
       id="filter5176">
      <feFlood
         flood-opacity="0.666667"
         flood-color="rgb(255,255,255)"
         result="flood"
         id="feFlood5178" />
      <feComposite
         in="flood"
         in2="SourceGraphic"
         operator="in"
         result="composite1"
         id="feComposite5180" />
      <feGaussianBlur
         in="composite1"
         stdDeviation="1"
         result="blur"
         id="feGaussianBlur5182" />
      <feOffset
         dx="1"
         dy="-1"
         result="offset"
         id="feOffset5184" />
      <feComposite
         in="SourceGraphic"
         in2="offset"
         operator="over"
         result="composite2"
         id="feComposite5186" />
    </filter>
    <linearGradient
       inkscape:collect="always"
       xlink:href="#linearGradient7481"
       id="linearGradient7487"
       x1="-281"
       y1="398.40302"
       x2="-280.9841"
       y2="412.34732"
       gradientUnits="userSpaceOnUse"
       gradientTransform="matrix(0.26462095,0,0,0.26462098,76.470943,-105.147)" />
    <linearGradient
       inkscape:collect="always"
       id="linearGradient7481">
      <stop
         style="stop-color:#90bcdc;stop-opacity:1"
         offset="0"
         id="stop7483" />
      <stop
         id="stop7489"
         offset="0.5950616"
         style="stop-color:#3679aa;stop-opacity:1" />
      <stop
         style="stop-color:#79aed5;stop-opacity:1"
         offset="1"
         id="stop7485" />
    </linearGradient>
  </defs>
  <sodipodi:namedview
     inkscape:window-maximized="0"
     inkscape:window-y="23"
     inkscape:window-x="3"
     inkscape:window-height="1035"
     inkscape:window-width="1920"
     units="px"
     showgrid="true"
     inkscape:document-rotation="0"
     inkscape:current-layer="layer1"
     inkscape:document-units="mm"
     inkscape:cy="7.6783601"
     inkscape:cx="11.343727"
     inkscape:zoom="41.349975"
     inkscape:pageshadow="2"
     inkscape:pageopacity="0"
     borderopacity="1.0"
     bordercolor="#666666"
     pagecolor="#9e9e9e"
     id="base">
    <inkscape:grid
       id="grid2778"
       type="xygrid" />
  </sodipodi:namedview>
  <metadata
     id="metadata849">
    <rdf:RDF>
      <cc:Work
         rdf:about="">
        <dc:format>image/svg+xml</dc:format>
        <dc:type
           rdf:resource="http://purl.org/dc/dcmitype/StillImage" />
        <dc:title></dc:title>
      </cc:Work>
    </rdf:RDF>
  </metadata>
  <g
     id="layer1"
     inkscape:groupmode="layer"
     inkscape:label="Layer 1">
    <rect
       style="opacity:1;fill:url(#linearGradient7487);fill-opacity:1;stroke:#5196c8;stroke-width:0.264057;stroke-linecap:butt;stroke-linejoin:round;stroke-miterlimit:4;stroke-dasharray:none;stroke-dashoffset:0;stroke-opacity:1"
       id="rect7477"
       width="3.7046938"
       height="3.7046936"
       x="0.39661691"
       y="0.13202851"
       rx="1.0584838"
       ry="1.0584838" />
    <g
       transform="matrix(0.31798929,0,0,0.22014685,76.73271,-105.03958)"
       style="font-style:normal;font-variant:normal;font-weight:normal;font-stretch:normal;font-size:16.2289px;line-height:125%;font-family:Cambria;letter-spacing:0px;word-spacing:0px;fill:#ffffff;fill-opacity:1;stroke:none;stroke-width:1px;stroke-linecap:butt;stroke-linejoin:miter;stroke-opacity:1"
       id="text4162-2">
      <path
         d="m -230.47815,480.73972 v 2.39288 l -0.85583,2.5e-4 c -0.46717,-0.65971 -0.24988,-0.35007 -0.49607,-0.66047 -0.0898,-0.13207 -0.19019,-0.23772 -0.30113,-0.31697 -0.10565,-0.0792 -0.23244,-0.13207 -0.38036,-0.15848 -0.14792,-0.0317 -0.3249,-0.0462 -0.53093,-0.0476 l -2.42798,-0.008 -2e-5,3.60557 1.39802,-5e-5 c 0.23245,-1e-5 0.41471,0.0105 0.54678,-0.0529 0.13207,-0.0687 0.24037,-0.18226 0.3249,-0.34075 0.0898,-0.15849 0.17467,-0.47012 0.25391,-0.80822 h 0.80459 v 3.60555 h -0.79384 c -0.074,-0.31697 -0.15585,-0.58968 -0.24565,-0.74817 -0.0898,-0.16376 -0.19811,-0.27999 -0.3249,-0.34867 -0.1215,-0.0687 -0.3064,-0.10257 -0.5547,-0.10263 l -1.39803,-0.002 -2e-5,3.60524 2.37728,-5e-5 c 0.25886,-10e-6 0.48714,2.6e-4 0.70874,-0.0216 0.22,-0.0532 0.13347,0.0219 0.41537,-0.19854 0.11622,-0.11094 0.33609,-0.30123 0.44168,-0.45847 0.195,-0.30049 0.27595,-0.49778 0.27595,-0.49778 l 0.7511,-0.0252 0.0111,2.4035 -7.48848,2.5e-4 -0.0111,-0.62845 c 0.32754,-0.0845 0.4581,-0.19298 0.56904,-0.29336 0.11094,-0.10566 0.18226,-0.25358 0.21395,-0.44376 0.037,-0.19018 0.0539,-0.48064 0.0546,-0.87158 l 0.0111,-6.2461 c 6.4e-4,-0.36452 -0.0123,-0.62876 -0.0387,-0.79253 -0.0264,-0.16905 -0.0713,-0.29848 -0.13471,-0.38829 -0.0581,-0.0951 -0.13738,-0.16905 -0.23773,-0.22188 -0.10038,-0.0581 -0.1834,-0.10552 -0.42641,-0.17418 v -0.75653 z"
         id="path4145"
         inkscape:connector-curvature="0"
         sodipodi:nodetypes="ccccccsccsccccccccsccsccccccccccsscccccc" />
    </g>
  </g>
</svg>
